<?xml version="1.0" encoding="UTF-8"?>
<svg width="44px" height="44px" viewBox="0 0 44 44" version="1.1" xmlns="http://www.w3.org/2000/svg" xmlns:xlink="http://www.w3.org/1999/xlink">
    <!-- Generator: Sketch 51.3 (57544) - http://www.bohemiancoding.com/sketch -->
    <title>异常</title>
    <desc>Created with Sketch.</desc>
    <defs>
        <linearGradient x1="50%" y1="0%" x2="50%" y2="98.8777999%" id="linearGradient-1">
            <stop stop-color="#FBB7BA" offset="0%"></stop>
            <stop stop-color="#FD677B" offset="100%"></stop>
        </linearGradient>
    </defs>
    <g id="首页" stroke="none" stroke-width="1" fill="none" fill-rule="evenodd">
        <g id="首页-暂无消息⭐️" transform="translate(-1104.000000, -269.000000)" fill-rule="nonzero">
            <g id="Group-2-Copy" transform="translate(-2.000000, 0.000000)">
                <g id="发票-copy" transform="translate(1076.000000, 124.000000)">
                    <g id="账户余额" transform="translate(30.000000, 145.000000)">
                        <g id="异常">
                            <circle id="Oval" fill="#FCE6E9" cx="22" cy="22" r="22"></circle>
                            <circle id="Oval-Copy" fill="url(#linearGradient-1)" cx="22" cy="22" r="17"></circle>
                            <g id="yichang" transform="translate(14.000000, 14.000000)" fill="#FFFFFF">
                                <path d="M14.1884186,13.9911688 C15.8032124,13.9899811 16.4629404,12.8705399 15.6546724,11.5032502 L9.45937083,1.02491249 C8.65108526,-0.342411696 7.32990474,-0.341533838 6.52330853,1.0269264 L0.343844653,11.5138361 C-0.462663572,12.8825718 0.198806561,14.0012039 1.81360035,13.999999 L14.1883658,13.9911172 L14.1884186,13.9911688 Z M8.00923627,3.65039664 C8.65515027,3.65039664 9.13844633,4.94213897 9.08262725,6.52049335 L9.08262725,6.52391872 C9.02714253,8.10256573 8.96430208,9.39401544 8.94290359,9.39401544 C8.9215051,9.39401544 8.51834778,9.39401544 8.0468244,9.39401544 C7.57530102,9.39401544 7.14984774,9.39401544 7.10117323,9.39401544 C7.05242832,9.39401544 6.97257114,8.10227311 6.92379104,6.52328184 L6.92379104,6.52071712 C6.87479977,4.94201848 7.36328708,3.65031057 8.00923627,3.65031057 L8.00923627,3.65039664 Z M6.9082349,11.2249348 C6.9082349,10.6100382 7.41762797,10.1121206 8.04590933,10.1121206 C8.6741907,10.1121206 9.18358376,10.6100898 9.18358376,11.2249348 C9.18358376,11.8398313 8.6741907,12.337749 8.04590933,12.337749 C7.41757518,12.337749 6.9082349,11.8397797 6.9082349,11.2249348 Z" id="Shape"></path>
                            </g>
                        </g>
                    </g>
                </g>
            </g>
        </g>
    </g>
</svg>