<?xml version="1.0" encoding="UTF-8"?>
<svg width="44px" height="44px" viewBox="0 0 44 44" version="1.1" xmlns="http://www.w3.org/2000/svg" xmlns:xlink="http://www.w3.org/1999/xlink">
    <!-- Generator: Sketch 51.3 (57544) - http://www.bohemiancoding.com/sketch -->
    <title>发票</title>
    <desc>Created with Sketch.</desc>
    <defs>
        <linearGradient x1="50%" y1="3.76625723%" x2="50%" y2="100%" id="linearGradient-1">
            <stop stop-color="#AECAF4" offset="0%"></stop>
            <stop stop-color="#6F9EE4" offset="100%"></stop>
        </linearGradient>
    </defs>
    <g id="首页" stroke="none" stroke-width="1" fill="none" fill-rule="evenodd">
        <g id="首页-暂无消息⭐️" transform="translate(-1104.000000, -143.000000)" fill-rule="nonzero">
            <g id="Group-2-Copy" transform="translate(-2.000000, 0.000000)">
                <g id="发票-copy" transform="translate(1076.000000, 124.000000)">
                    <g id="账户余额-copy" transform="translate(30.000000, 19.000000)">
                        <g id="发票">
                            <circle id="Oval" fill="#E5EFFC" cx="22" cy="22" r="22"></circle>
                            <circle id="Oval-Copy" fill="url(#linearGradient-1)" cx="22" cy="22" r="17"></circle>
                            <g id="fapiao" transform="translate(14.000000, 15.000000)" fill="#FFFFFF">
                                <path d="M15.7457627,0 L2.95932203,0 C2.71186441,0 2.5,0.183589359 2.45762712,0.435369052 C2.28135593,1.50718122 1.46101695,2.35344074 0.420338983,2.5370301 C0.177966102,2.57899338 0,2.79755214 0,3.05282877 L0,10.9454228 C0,11.2006994 0.177966102,11.4192581 0.422033898,11.4629699 C1.46101695,11.6448108 2.28135593,12.4910703 2.45932203,13.5646309 C2.49998305,13.8164106 2.71355932,14 2.96101695,14 L15.7457627,14 C15.8864576,14 16,13.8828525 16,13.7377295 L16,13.3775446 C16,13.2551517 15.9169661,13.1502435 15.8,13.1222505 C15.4118814,13.0295816 15.1237458,12.6711452 15.1237458,12.2427701 C15.1237458,11.8143949 15.4118814,11.4559585 15.8,11.3632896 C15.9152542,11.3353316 16,11.2304234 16,11.1080305 L16,10.7583365 C16,10.6359435 15.9169661,10.5310353 15.8,10.5030598 C15.4118814,10.4103909 15.1237458,10.0519545 15.1237458,9.62357937 C15.1237458,9.1952042 15.4118814,8.83676783 15.8,8.74409891 C15.9152542,8.71612339 16,8.61121519 16,8.48882228 L16,8.13912826 C16,8.01673536 15.9169661,7.91182715 15.8,7.88385163 C15.4118814,7.79118272 15.1237458,7.43274635 15.1237458,7.00437118 C15.1237458,6.575996 15.4118814,6.21755964 15.8,6.12487324 C15.9152542,6.09689771 16,5.99198951 16,5.8695966 L16,5.51990259 C16,5.39750968 15.9169661,5.29260147 15.8,5.26462595 C15.4118814,5.17195704 15.1237458,4.81352067 15.1237458,4.3851455 C15.1237458,3.95677033 15.4118814,3.59833396 15.8,3.50566504 C15.9169492,3.47069564 16,3.36578744 16,3.24339453 L16,2.89370051 C16,2.77130761 15.9169661,2.6663994 15.8,2.63842388 C15.4118814,2.54575496 15.1237458,2.1873186 15.1237458,1.75894342 C15.1237458,1.33056825 15.4118814,0.972131885 15.8,0.87946297 C15.9152542,0.851487448 16,0.746579243 16,0.624186337 L16,0.262270513 C16,0.117147496 15.8864576,0 15.7457627,0 Z M11.6915424,6.4885725 L10.3627288,7.69501686 C10.2203559,7.82440365 10.159339,8.02198077 10.2051017,8.21258149 L10.5949322,9.87887349 C10.7000169,10.3282303 10.2305254,10.6884151 9.84238983,10.4541027 L8.38476271,9.57112527 C8.22545763,9.47495941 8.02883051,9.47495941 7.86952542,9.57112527 L6.41189831,10.4541027 C6.02542373,10.6883977 5.55423729,10.3282128 5.65932203,9.878856 L6.04915254,8.21256401 C6.09322034,8.02371175 6.03220339,7.82440365 5.89152542,7.69499938 L4.56271186,6.48855501 C4.22881356,6.1843387 4.40677966,5.61608592 4.85084746,5.57237417 L6.61864407,5.4010241 C6.80679661,5.3835394 6.96949153,5.25764956 7.04067797,5.07755714 L7.65762712,3.53190958 C7.83049153,3.098289 8.42542373,3.098289 8.59830508,3.53190958 L9.21523729,5.07755714 C9.28642373,5.25764956 9.44913559,5.38179093 9.63727119,5.4010241 L11.4050678,5.57237417 C11.8474576,5.61608592 12.0271186,6.1843387 11.6915424,6.4885725 Z" id="Shape"></path>
                            </g>
                        </g>
                    </g>
                </g>
            </g>
        </g>
    </g>
</svg>